# xmcd CD database file
#
# Track frame offsets:
#	150
#	37100
#	51225
#	77400
#	107100
#	137775
#	164700
#	192450
#
# Disc length: 2901 seconds
#
# Revision: 0
# Processed by: cddbd v1.5.2PL0 Copyright (c) Steve Scherf et al.
# Submitted via: CDex 1.70beta2
#
DISCID=710b5308
DTITLE=matthias bergmann - still time
DYEAR=2008
DGENRE=Jazz
TTITLE0=Unknown Unseen Unsung
TTITLE1=No More Words
TTITLE2=Whatever It Takes
TTITLE3=Still Time
TTITLE4=Are You Still On Top?
TTITLE5=Filou
TTITLE6=Right No Wrong
TTITLE7=Johnsburg, Illinois
EXTD=YEAR: 2008
EXTT0=
EXTT1=
EXTT2=
EXTT3=
EXTT4=
EXTT5=
EXTT6=
EXTT7=
PLAYORDER=
